<?xml version="1.0" encoding="UTF-8" standalone="no"?><!DOCTYPE svg PUBLIC "-//W3C//DTD SVG 1.1//EN" "http://www.w3.org/Graphics/SVG/1.1/DTD/svg11.dtd"><svg width="100%" height="100%" viewBox="0 0 4267 4267" version="1.1" xmlns="http://www.w3.org/2000/svg" xmlns:xlink="http://www.w3.org/1999/xlink" xml:space="preserve" xmlns:serif="http://www.serif.com/" style="fill-rule:evenodd;clip-rule:evenodd;stroke-linejoin:round;stroke-miterlimit:2;"><g><path d="M2057.134,14.347c-16.922,7.357 -128.753,75.045 -247.942,150.09c-205.27,129.489 -629.052,392.882 -1163.195,723.226c-133.168,83.138 -252.357,158.919 -263.393,169.955c-11.036,11.036 -29.429,37.522 -40.465,60.33l-19.865,40.465l-2.207,952.04c-2.207,1033.706 -2.943,1001.334 38.258,1065.343c26.486,41.937 38.258,50.766 236.171,171.426c164.069,100.796 681.29,422.311 1233.826,768.106c108.153,67.688 211.156,129.489 228.077,136.846c41.937,19.129 116.246,19.129 156.711,0.736c16.186,-7.357 167.012,-99.324 334.759,-204.534c400.239,-250.15 896.86,-559.893 1139.652,-709.983c169.219,-104.474 197.177,-124.339 218.513,-155.24c13.979,-19.865 27.958,-47.823 31.637,-62.537c4.414,-16.186 8.093,-422.311 8.829,-987.355c2.207,-776.199 0.736,-966.019 -7.357,-989.562c-19.865,-62.537 -50.766,-92.702 -170.69,-166.276c-62.537,-38.258 -115.51,-70.63 -118.453,-71.366c-3.679,-1.471 -5.886,161.861 -5.886,361.981l0,364.924l-133.904,-1.471l-134.639,-2.207l-1.471,-448.062l-2.207,-448.798l-240.585,-150.09c-133.168,-82.402 -386.26,-241.321 -562.836,-351.681c-176.576,-111.096 -335.495,-208.213 -353.152,-216.306c-42.673,-19.129 -116.246,-19.129 -158.183,0Zm137.582,1233.09c61.802,80.931 186.141,206.741 273.693,276.636c203.063,163.333 448.798,290.615 712.19,370.074c63.273,19.129 77.988,25.751 79.459,38.258c1.471,8.093 -11.036,84.609 -27.222,168.483c-16.186,84.609 -51.501,273.693 -77.988,420.84c-51.501,283.258 -64.009,330.344 -114.039,414.218c-56.652,95.645 -95.645,127.282 -389.203,311.215c-147.147,92.702 -284.729,175.84 -305.33,185.405c-70.63,32.372 -127.282,43.408 -217.777,42.673c-148.618,-1.471 -125.81,9.565 -662.896,-324.459c-57.387,-36.051 -120.66,-79.459 -140.525,-97.117c-74.309,-66.216 -137.582,-176.576 -160.39,-278.843c-25.015,-112.567 -155.24,-832.851 -153.033,-845.358c1.471,-8.093 32.372,-21.336 101.531,-42.673c391.41,-121.396 721.755,-339.173 957.19,-632.731c33.844,-41.937 64.745,-74.309 69.159,-72.102c3.679,1.471 28.694,30.901 55.18,65.48Z" style="fill:#ff2056;fill-rule:nonzero;"/><path d="M1567.135,1971.399c-102.267,25.751 -176.576,114.774 -186.876,222.192c-11.036,120.66 66.216,228.813 185.405,259.714c114.039,30.165 242.792,-31.637 292.086,-139.789c25.015,-54.444 23.543,-146.411 -2.207,-202.327c-23.543,-49.294 -71.366,-97.853 -121.396,-122.132c-42.673,-20.601 -121.396,-28.694 -167.012,-17.658Z" style="fill:#ff2056;fill-rule:nonzero;"/><path d="M2575.091,1974.342c-48.558,13.243 -111.096,58.123 -137.582,98.588c-86.817,130.961 -37.522,301.651 105.21,365.66c94.174,42.673 206.005,21.336 279.579,-53.709c50.766,-51.501 67.688,-94.91 67.688,-170.69c0,-53.709 -2.943,-68.423 -20.601,-104.474c-25.751,-52.973 -72.102,-98.588 -120.66,-121.396c-47.823,-22.072 -124.339,-27.958 -173.633,-13.979Z" style="fill:#ff2056;fill-rule:nonzero;"/></g></svg>